<svg version="1.1" xmlns="http://www.w3.org/2000/svg" xmlns:xlink="http://www.w3.org/1999/xlink" width="111.86089" height="95.67699" viewBox="0,0,111.86089,95.67699"><g transform="translate(-145.3761,-106.60738)"><g data-paper-data="{&quot;isPaintingLayer&quot;:true}" fill="#9966ff" fill-rule="nonzero" stroke="none" stroke-width="0.5" stroke-linecap="butt" stroke-linejoin="miter" stroke-miterlimit="10" stroke-dasharray="" stroke-dashoffset="0" font-family="none" font-weight="none" font-size="none" text-anchor="none" style="mix-blend-mode: normal"><path d="M197.57248,140.57706c-0.40711,2.46663 -2.87374,2.05952 -2.87374,2.05952l-0.52577,0.03117c-7.12051,-0.29875 -14.07327,-2.30568 -21.0665,-3.78654c-0.83895,3.65834 -1.64655,7.23848 -2.9826,10.85083l0.07902,0.57346c0,0 -0.6126,2.42378 -3.03639,1.81118c-2.42378,-0.6126 -1.81118,-3.03639 -1.81118,-3.03639l0.07902,-1.08271c1.23443,-3.3376 1.99897,-6.65148 2.7681,-10.02889c-3.1065,-0.46267 -6.28436,-0.69969 -9.41434,-1.09324c-0.37201,2.68225 -0.6948,5.37251 -0.94051,8.07528l-0.01657,0.9671c0,0 -0.36535,2.47316 -2.83851,2.10781c-2.47316,-0.36535 -2.10781,-2.83851 -2.10781,-2.83851l-0.01657,-0.68907c0.25683,-2.82517 0.59681,-5.63681 0.98879,-8.43994c-0.7011,-0.15375 -1.3963,-0.32655 -2.08415,-0.52308c0,0 -2.40381,-0.6868 -1.71701,-3.09061c0.6868,-2.40381 3.09061,-1.71701 3.09061,-1.71701c0.48034,0.13724 0.96463,0.2622 1.4523,0.37663c0.32725,-2.06699 0.67289,-4.13096 1.0243,-6.19393c-2.80649,-0.37915 -5.61664,-0.9597 -8.43623,-1.80557c0,0 -2.39457,-0.71837 -1.6762,-3.11294c0.71837,-2.39457 3.11294,-1.6762 3.11294,-1.6762c2.61684,0.78505 5.22962,1.32515 7.84174,1.6784c0.63898,-3.73744 1.26407,-7.47692 1.80031,-11.23055c0,0 0.35355,-2.47487 2.82843,-2.12132c2.47487,0.35355 2.12132,2.82843 2.12132,2.82843c-0.52455,3.67186 -1.13556,7.33 -1.76133,10.98594c3.90219,0.2075 7.80772,0.08074 11.72793,-0.18662c0.75609,-2.76699 1.36603,-5.57213 1.63046,-8.48092c0,0 0.22634,-2.48973 2.71607,-2.26339c2.48973,0.22634 2.26339,2.71607 2.26339,2.71607c-0.23657,2.60225 -0.73018,5.12204 -1.35504,7.60379c3.68555,-0.33176 7.38839,-0.71108 11.11784,-0.97894c0.83122,-0.05937 1.66243,-0.11875 2.49365,-0.17812l1.42417,-0.06406c0,0 2.4999,0.02273 2.47717,2.52262c-0.02273,2.4999 -2.52262,2.47717 -2.52262,2.47717l-1.02249,0.05156c-0.83122,0.05937 -1.66243,0.11875 -2.49365,0.17812c-4.34389,0.30847 -8.64271,0.74828 -12.91644,1.09809c-0.91665,3.00997 -1.90016,6.00886 -2.7174,9.07898c6.67194,1.44511 13.33508,3.35741 20.10558,3.64148l1.1304,0.03117c0,0 2.46663,0.40711 2.05952,2.87374zM171.67406,125.3255c-3.69705,0.20558 -7.38144,0.27383 -11.06627,0.05968c-0.37386,2.18862 -0.74146,4.3783 -1.08744,6.57153c3.26693,0.4156 6.59777,0.63295 9.83897,1.13164c0.68381,-2.62509 1.5098,-5.19483 2.31473,-7.76285z"/><path d="M217.37469,152.95142c-0.28693,0.07198 -0.62027,0.09694 -1.00738,0.05509c-2.48552,-0.2687 -2.21681,-2.75422 -2.21681,-2.75422l4.51821,-1.68896c5.39503,1.79834 12.44272,0.665 17.74091,-1.19161c2.05147,-0.71888 3.46491,-1.34959 5.22506,-2.5771c0.36085,-0.25165 0.80985,-0.38505 1.12183,-0.69522c0.25033,-0.24887 0.3631,-0.75521 0.5358,-1.10042c-1.66218,-1.13274 -3.44902,-2.13681 -5.17025,-3.16955c-2.71127,-1.64513 -5.16794,-3.0218 -6.58101,-6.14619c-0.25751,-0.56936 0.02805,-1.26448 0.20702,-1.86319c0.38679,-1.29395 0.70695,-2.66346 1.47762,-3.7725c1.00922,-1.45232 1.96985,-0.63255 3.07196,-1.54572c0.08442,-0.06995 0.16098,-0.15509 0.23218,-0.25005c-0.6511,-0.10693 -1.30124,-0.2198 -1.95046,-0.33712c-5.22242,-0.94371 -10.21975,-2.17235 -15.31783,-3.62894c0,0 -2.40381,-0.6868 -1.71701,-3.09061c0.6868,-2.40381 3.09061,-1.71701 3.09061,-1.71701c4.94314,1.41233 9.77105,2.60147 14.83334,3.51625c1.44375,0.26089 2.89192,0.50104 4.34608,0.69568c0.6658,0.08912 1.80465,-0.37489 1.99721,0.26865c1.6196,5.4126 -0.48909,7.17054 -4.29469,9.42456c-0.61129,0.36206 -1.4165,0.48262 -1.86319,1.0351c-0.22311,0.27595 0.91227,-0.36711 1.06358,-0.04613c0.26645,0.56523 -0.51237,1.31799 -0.20702,1.86319c0.20081,0.35854 0.26214,-1.07056 0.67146,-1.03395c1.40139,0.12533 2.3017,1.62407 3.51261,2.34052c1.80684,1.0841 3.68825,2.13394 5.4213,3.33607c0.80549,0.55873 2.2257,0.84706 2.30695,1.82399c0.4855,5.83761 -3.2956,8.4737 -8.08601,10.48399c-6.9078,2.89885 -15.9647,4.54889 -23.24921,2.12072z"/><path d="M193.36298,184.35268c-0.70837,2.39754 -3.10591,1.68918 -3.10591,1.68918l-2.31435,-3.87208c-0.84756,-2.20367 -1.7232,-4.391 -2.4543,-6.63679c-0.04513,-0.13864 -0.0869,-0.27846 -0.12778,-0.41858c-0.2014,0.61901 -0.38786,1.24508 -0.61662,1.85117c-0.50882,1.34811 -1.60618,6.39519 -2.88228,7.11265l-1.02404,2.21875c-0.38498,0.88482 -1.26699,1.5035 -2.29351,1.5035c-1.27327,0 -2.32422,-0.95187 -2.48007,-2.18283l-0.40884,-2.86191l0.00368,-0.00053c-0.45317,-3.09075 -1.09895,-6.36375 -2.63314,-8.96837c-0.93519,0.83792 -1.84229,1.70775 -2.73009,2.59556c-3.73189,3.73189 -8.02996,9.34244 -13.54867,10.3374c-1.67502,0.30199 -3.09034,-1.79068 -3.91239,-3.28102c-0.40249,-0.72969 -0.12901,-1.66167 -0.19174,-2.49264c-0.19622,-2.59903 -0.15172,-5.09147 -0.57913,-7.65592c0,0 -0.411,-2.46598 2.05499,-2.87698c2.46598,-0.411 2.87698,2.05499 2.87698,2.05499c0.4801,2.88058 0.61204,5.85248 0.74189,8.79107c0.42087,-0.38128 2.51393,-2.11806 2.64441,-2.22682c2.91669,-2.43094 5.38023,-5.35616 8.14589,-7.95339c0.57001,-0.5353 1.17461,-1.03254 1.76281,-1.54779c0.54606,-0.47834 0.9256,-1.56199 1.63999,-1.43297c1.88415,0.34028 3.39753,1.76637 5.09629,2.64956c1.10234,1.73225 1.8637,3.70062 2.42747,5.74902c0.56955,-1.89161 1.15244,-3.8369 2.13328,-5.32857c0.48053,-0.7308 1.18048,-1.29267 1.81231,-1.89746c0.3192,-0.30554 0.60438,-0.92666 1.0351,-0.82808c5.97745,1.36798 6.28297,7.01476 8.17425,11.93208l-0.93564,0.87188c0,0 2.39754,0.70837 1.68918,3.10591zM158.17466,181.74865c0.37921,0.28458 0.7797,0.78755 0.7625,0.47634c-0.01579,-0.28569 -0.41512,-0.37064 -0.7625,-0.47634zM157.7518,181.57933c0.00902,-0.002 0.01823,-0.00339 0.02763,-0.00418c-0.01021,-0.00802 -0.01987,-0.0163 -0.02891,-0.02489c0.00043,0.00969 0.00086,0.01938 0.00129,0.02907z"/><path d="M257.20363,200.13901c-0.34707,2.47579 -2.82286,2.12872 -2.82286,2.12872l-0.89505,-0.38983c-0.54681,0 -1.09361,0 -1.64042,0c-8.09719,0 -16.74405,0.75261 -24.76309,-0.52278c-5.86254,-0.93241 -12.20185,-3.14461 -17.64162,-5.47594c0,0 -2.29786,-0.9848 -1.31306,-3.28266c0.9848,-2.29786 3.28266,-1.31306 3.28266,-1.31306c5.24199,2.24657 11.35416,4.35299 16.99736,5.25051c2.38468,0.37927 4.8493,0.55258 7.34583,0.61242c-0.55209,-0.73011 -0.88127,-1.49181 -0.88127,-1.49181l0.20702,-1.24212c0.1902,-1.13439 0.41002,-2.26374 0.6356,-3.39163c0.9955,-4.94043 1.60762,-9.7929 1.60762,-14.82925c0,-1.19664 0.37168,-2.40093 0.1958,-3.58458c-0.03005,-0.20221 -0.19459,-0.41919 -0.35742,-0.62701c-0.00594,0.00208 -0.01183,0.0042 -0.01766,0.00634c-0.88279,0.32387 -1.75095,0.69255 -2.6517,0.96248c-4.69533,1.40705 -8.723,1.34652 -13.42918,0.3007c0,0 -2.44047,-0.54233 -1.89814,-2.98279c0.54233,-2.44047 2.98279,-1.89814 2.98279,-1.89814c4.05682,0.90152 7.17631,0.92012 11.22023,-0.29172c0.2477,-0.07423 4.29884,-1.67349 4.37932,-1.64804c1.49549,0.473 2.65007,1.71539 3.77726,2.80611c1.51473,1.46572 0.79869,5.0641 0.79869,6.95666c0,5.36189 -0.66003,10.55122 -1.70471,15.80983c-0.21504,1.07519 -0.42746,2.15128 -0.60653,3.23304l-0.20702,1.24212c0,0 0.43516,0.17315 0.09492,0.68087c4.03398,-0.05946 8.08197,-0.27954 11.9463,-0.27954c0.54681,0 1.09361,0 1.64042,0l1.5892,0.43825c0,0 2.47579,0.34707 2.12872,2.82286z"/></g></g></svg>