<svg version="1.1" xmlns="http://www.w3.org/2000/svg" xmlns:xlink="http://www.w3.org/1999/xlink" width="116.56886" height="89.43433"><g transform="translate(-142.92086,-114.06957)"><g data-paper-data="{&quot;isPaintingLayer&quot;:true}" fill="#9966ff" fill-rule="nonzero" stroke="none" stroke-width="0.5" stroke-linecap="butt" stroke-linejoin="miter" stroke-miterlimit="10" stroke-dasharray="" stroke-dashoffset="0" font-family="none" font-weight="none" font-size="none" text-anchor="none" style="mix-blend-mode: normal"><path d="M197.18864,142.78008c-0.12589,2.49683 -2.62272,2.37094 -2.62272,2.37094l-2.35836,0.00317c-1.9907,0 -3.9814,0 -5.9721,0c-3.13647,0 -6.26533,-0.04689 -9.39002,-0.14444c-0.34635,3.15538 -0.90919,6.21542 -1.68569,9.06648l0.08768,-0.27341c0,0 0.03049,2.49981 -2.46933,2.5303c-2.49981,0.03049 -2.5303,-2.46933 -2.5303,-2.46933l0.08768,-1.10149c0.68041,-2.49823 1.18235,-5.18119 1.50321,-7.95294c-4.4334,-0.21701 -8.86211,-0.5403 -13.29598,-0.98071c-0.77084,3.40289 -1.55548,6.79964 -1.94226,10.28073l-0.41975,0.87535c0,0 -0.32335,2.479 -2.80235,2.15565c-2.479,-0.32335 -2.15565,-2.80235 -2.15565,-2.80235l0.40833,-0.78081c0.38735,-3.48618 1.17172,-6.88143 1.94232,-10.28256c-2.70178,-0.31689 -5.37783,-0.60474 -8.15248,-0.60474c0,0 -2.5,0 -2.5,-2.5c0,-2.5 2.5,-2.5 2.5,-2.5c3.12935,0 6.14962,0.3413 9.20607,0.69828c0.16572,-0.85708 0.31827,-1.71743 0.45124,-2.58255c0.21879,-1.42345 0.39427,-2.84367 0.53487,-4.26271c-2.4298,-0.01874 -4.86069,-0.03214 -7.29389,-0.03214c0,0 -2.5,0 -2.5,-2.5c0,-2.5 2.5,-2.5 2.5,-2.5c2.55545,0 5.10695,0.03101 7.65676,0.07252c0.16547,-3.31619 0.19428,-6.63881 0.19428,-9.99376c0,0 0,-2.5 2.5,-2.5c2.5,0 2.5,2.5 2.5,2.5c0,3.38063 -0.02862,6.73528 -0.19019,10.08299c3.4692,0.06325 6.93803,0.12109 10.41218,0.12179c-0.36616,-2.14029 -0.84842,-4.2084 -1.44806,-6.15723c0,0 -0.73521,-2.38945 1.65423,-3.12466c2.38945,-0.73521 3.12466,1.65423 3.12466,1.65423c0.73655,2.39377 1.31136,4.94447 1.72618,7.58249c1.12711,-0.02165 2.25506,-0.05193 3.38405,-0.09258c4.14985,-0.14943 8.65647,0.41775 12.71211,-0.51127l2.07021,-0.41404c0,0 2.94566,-0.0924 2.9899,2.40721c0.04424,2.49961 -2.00932,2.49569 -2.00932,2.49569l-2.07021,0.41404c-3.66521,0.66623 -7.29668,0.43646 -11.01438,0.51517c-1.8293,0.03873 -3.65674,0.06371 -5.48281,0.07836c0.22569,2.7773 0.28548,5.60157 0.1812,8.39861c3.00332,0.09064 6.01069,0.13383 9.02552,0.13383c1.9907,0 3.9814,0 5.9721,0l2.61014,0.00317c0,0 2.49683,0.12589 2.37094,2.62272zM172.016,131.63861c-3.79609,-0.00296 -7.58829,-0.03719 -11.38116,-0.07195c-0.15052,1.58969 -0.3426,3.17991 -0.58742,4.77271c-0.13239,0.86129 -0.28423,1.71812 -0.44918,2.57187c4.20829,0.4104 8.41148,0.71112 12.61895,0.91386c0.10176,-2.72749 0.03546,-5.48456 -0.20118,-8.1865z"/><path d="M250.69112,146.37301c-1.23456,2.1739 -2.5849,1.23142 -2.5849,1.23142l-1.24212,-0.20702c-1.39878,-0.29117 -2.75912,-0.05901 -4.17663,-0.21333c-5.05176,-0.54997 -10.13454,-1.50047 -15.18597,-2.15314c-2.06768,-0.26716 -3.84625,-0.64662 -5.83826,-1.17084c-0.8059,-0.21208 -1.85476,-0.02177 -2.41769,-0.63623l-2.36593,-0.62261c-1.09877,-0.26318 -1.91552,-1.25186 -1.91552,-2.43131c0,-0.96643 0.54838,-1.80479 1.35095,-2.22087l2.54195,-1.38155l0.00223,0.00411c2.0987,-1.12888 4.14707,-2.24244 6.06995,-3.69727c2.69411,-1.78581 5.11804,-5.43969 6.132,-8.53882c0.25913,-0.79202 -0.02441,-1.77962 0.46072,-2.45718c0.26023,-0.36345 1.39782,0.38571 1.33978,-0.05751c-0.08416,-0.64265 -1.2558,-0.63036 -1.50804,-1.2274c-0.13015,-0.30807 1.00987,-0.71532 0.67642,-0.741c-5.56464,-0.42844 -11.56164,4.82827 -15.42324,8.13821c0,0 -1.89814,1.62698 -3.52512,-0.27116c-1.62698,-1.89814 0.27116,-3.52512 0.27116,-3.52512c3.69535,-3.16744 7.49861,-6.34345 12.23535,-7.85247c1.71449,-0.5462 3.45856,-1.66069 5.22917,-1.34017c4.90547,0.888 5.64483,3.31909 5.61888,7.79806c-0.03041,5.24732 -4.69165,10.97893 -8.49029,14.06191c-1.19554,0.90453 -2.43954,1.69634 -3.71284,2.43968c0.7899,0.25515 1.46635,0.47396 1.73399,0.52107c7.17662,1.26305 14.55454,1.59835 21.71897,2.64297l1.24212,0.20702c0,0 2.99747,1.52664 1.76291,3.70055z"/><path d="M202.96171,186.9342c0.01861,0.14234 0.02794,0.2945 0.02659,0.45715c-0.02066,2.49991 -2.52058,2.47925 -2.52058,2.47925l-2.47934,-2.91396c0,-1.85341 0.16889,-3.82088 0.11377,-5.71227c-2.38672,3.14574 -5.30892,5.61093 -9.67077,3.72494c-0.59754,-0.25837 -0.6951,-1.101 -1.0351,-1.65617c-1.62362,-2.65112 -2.99118,-5.66903 -3.60425,-8.74102c-0.08428,-0.42232 0.10894,-0.90713 -0.09059,-1.28876c-0.32983,-0.63083 -1.48322,-0.91329 -1.45507,-1.59289c-0.62698,0.44146 -1.24873,0.89045 -1.88157,1.32346c-2.87654,1.96819 -5.31088,3.7355 -7.55984,6.43425c-3.24898,2.60643 -4.65372,3.55077 -8.74868,0.36579c-0.52519,-0.40848 -0.19553,-3.50066 -0.80245,-4.20853c-0.33403,-0.38959 -1.1356,-0.54981 -1.38187,-0.92715c-0.7808,0.74335 -1.48442,1.56993 -2.16804,2.40359c-2.88064,3.51283 -4.79795,7.36516 -7.19457,11.19975c0,0 -1.325,2.12 -3.44499,0.795c-2.12,-1.325 -0.795,-3.44499 -0.795,-3.44499c2.50505,-4.00807 4.55537,-8.02998 7.56478,-11.71595c0.57798,-0.70792 3.34961,-4.56793 4.4864,-4.5602c4.01282,0.02727 5.7008,1.44891 7.41741,4.47591c0.43668,0.77002 0.68424,1.63421 0.86235,2.51225c0.7146,0.04502 1.53307,0.63921 0.36357,-0.09638c2.54716,-3.05659 5.3593,-5.15752 8.62745,-7.39358c0.0359,-0.02457 3.65174,-2.57353 3.65429,-2.57324c6.71514,0.76016 6.75556,6.17533 8.7287,11.05285c0.0715,0.17674 1.04581,1.88272 1.80318,3.25157c0.12631,-0.07066 0.30145,-0.08715 0.49276,-0.08964c-0.00936,-0.01129 -0.01662,-0.02429 -0.02152,-0.03916c-0.1448,-0.43968 0.35366,-0.86426 0.62106,-1.24212c1.12068,-1.58363 2.54336,-2.87593 3.6417,-4.46225l1.04719,-1.57079c0.44514,-0.68925 1.2201,-1.14551 2.10163,-1.14551c1.25484,0 2.29374,0.92451 2.47274,2.12954l0.40424,2.42545c0.56041,0.61675 0.32928,1.63667 0.411,2.46598c0.25468,2.58451 0.0401,5.30613 0.0401,7.90028zM192.89116,180.48702c0.13544,-0.0126 0.26151,-0.03973 0.36622,-0.09615c0.15057,-0.08112 -0.08447,0.01938 -0.36622,0.09615z"/><path d="M240.4823,201.90061c-0.23405,0.24202 -0.55239,0.45968 -0.98118,0.62958c-2.3242,0.92091 -3.24511,-1.40329 -3.24511,-1.40329l3.374,-2.58764c3.67691,-0.43958 7.8394,-0.06024 10.77747,-2.19702c1.02743,-0.65311 3.01553,-2.01842 3.49582,-3.07101c0.50879,-1.11505 -0.19997,-4.25295 0.39474,-5.07245c0.2725,-0.3755 1.55946,0.59453 1.38197,0.16586c-0.3307,-0.79868 -3.72305,-1.69407 -4.4568,-1.88092c-3.55298,-0.90477 -7.86653,-2.13779 -10.52444,-4.76117c-0.32565,-0.32142 -0.32136,-0.88009 -0.30884,-1.33747c0.09002,-3.28754 0.71246,-3.92511 2.05207,-5.09773c-3.92543,1.36955 -7.75154,2.23012 -10.94449,4.88523c-0.23557,0.19896 -0.50844,0.35514 -0.80662,0.45657c-0.70262,0.27023 -1.76025,0.37523 -2.70866,-0.74614c-0.01352,-0.01586 -0.02685,-0.03189 -0.03998,-0.04809c-0.61835,-0.75656 -0.69257,-1.46235 -0.55691,-2.03872v-3.67485l4.08661,0c4.3905,-2.61201 10.23667,-4.66531 14.97505,-5.26036v-0.13793h2.89829c1.38071,0 2.5,1.11929 2.5,2.5c0,0.59805 -0.20999,1.14705 -0.56027,1.57729l-1.5493,1.93662c-0.19689,1.33908 -2.62164,3.35932 -4.31573,4.66908c0.10832,0.32922 -0.20651,1.09031 0.15058,1.19153c0.38739,0.10982 -0.17063,-1.0823 0.21786,-1.18816c0.1539,-0.04194 3.42778,1.20605 3.60659,1.27301c2.32156,0.86934 4.61414,1.29579 6.86489,2.38198c0.55587,0.26826 1.34185,0.29689 1.65617,0.82808c3.66968,6.20166 0.41582,12.60201 -4.56774,16.49342c-3.73767,2.7183 -8.63638,2.58138 -13.12479,3.11798z"/></g></g></svg>