<svg version="1.1" xmlns="http://www.w3.org/2000/svg" xmlns:xlink="http://www.w3.org/1999/xlink" width="81.2318" height="89.11081" viewBox="0,0,81.2318,89.11081"><g transform="translate(-148.31067,-109.91972)"><g data-paper-data="{&quot;isPaintingLayer&quot;:true}" fill="#9966ff" fill-rule="nonzero" stroke="none" stroke-width="0.5" stroke-linecap="butt" stroke-linejoin="miter" stroke-miterlimit="10" stroke-dasharray="" stroke-dashoffset="0" font-family="none" font-weight="none" font-size="none" text-anchor="none" style="mix-blend-mode: normal"><path d=""/><path d="M193.45823,131.2507c-0.18967,2.4928 -2.68246,2.30312 -2.68246,2.30312l-1.4665,-0.40684c-4.27649,0 -8.49259,-0.08754 -12.68459,-0.27365c-0.42642,2.86989 -0.99078,5.71535 -1.9194,8.50122l-0.32664,0.90181c0,0 -0.45026,2.45912 -2.90938,2.00886c-2.45912,-0.45026 -2.00886,-2.90938 -2.00886,-2.90938l0.50145,-1.58244c0.78452,-2.35357 1.29689,-4.75919 1.68526,-7.18866c-3.16166,-0.20128 -6.31777,-0.4615 -9.48401,-0.78543c-0.77802,2.13123 -1.61033,4.23978 -2.39421,6.33013l0.09964,0.4926c0,0 -0.54232,2.44046 -2.98279,1.89814c-2.44047,-0.54233 -1.89814,-2.98279 -1.89814,-2.98279l0.09965,-1.16357c0.634,-1.69066 1.33426,-3.40955 2.0114,-5.14634c-1.52139,-0.18797 -3.04701,-0.3911 -4.57859,-0.60989c0,0 -2.47487,-0.35355 -2.12132,-2.82842c0.35356,-2.47487 2.82843,-2.12132 2.82843,-2.12132c1.87843,0.26835 3.74743,0.51259 5.61039,0.73376c0.34148,-1.07555 0.64368,-2.15425 0.88625,-3.23376c-2.82328,-0.23786 -5.65566,-0.39192 -8.50635,-0.39192c0,0 -2.5,0 -2.5,-2.5c0,-2.5 2.5,-2.5 2.5,-2.5c2.94445,0 5.86884,0.16242 8.78343,0.41128c-0.04869,-0.85495 -0.10432,-1.69449 -0.10432,-2.46573c0,0 0,-2.5 2.5,-2.5c2.5,0 2.5,2.5 2.5,2.5c0,0.92926 0.07499,1.94456 0.1242,2.9663c2.78055,0.30911 5.55751,0.65733 8.33986,0.97814c0.44957,-2.53742 1.09876,-5.03569 1.46657,-7.61033c0,0 0.35356,-2.47487 2.82843,-2.12132c2.47487,0.35356 2.12132,2.82842 2.12132,2.82842c-0.35874,2.51119 -0.97785,4.95942 -1.44407,7.43258c2.30194,0.21823 4.61118,0.39093 6.93271,0.48082l0.52741,0.00697c0,0 2.49116,0.2101 2.28106,2.70126c-0.2101,2.49116 -2.70126,2.28106 -2.70126,2.28106l-0.30067,0.00697c-2.50368,-0.09694 -4.99314,-0.29134 -7.47459,-0.53565c-0.11405,0.913 -0.22169,1.8267 -0.33008,2.73999c3.9791,0.17019 7.98196,0.25028 12.04182,0.25028l1.84583,0.42125c0,0 2.4928,0.18967 2.30312,2.68247zM172.66622,124.61833c-2.67927,-0.31367 -5.35401,-0.64886 -8.03214,-0.94513c-0.24065,1.10146 -0.52744,2.1958 -0.84741,3.28357c2.84499,0.27763 5.68285,0.5031 8.52582,0.6801c0.11845,-1.00604 0.23293,-2.01288 0.35372,-3.01855z"/><path d="M224.48351,139.75901c-0.41715,2.46495 -2.46495,2.08285 -2.46495,2.08285h-1.44914c-8.7399,-0.13015 -16.99745,-3.84028 -25.67118,-4.56309c0,0 -2.49137,-0.20762 -2.28375,-2.69898c0.20762,-2.49137 2.69898,-2.28375 2.69898,-2.28375c3.1544,0.26287 6.30161,0.99567 9.44863,1.79861l-0.02075,-0.92591c1.22761,-3.68282 2.26234,-7.03029 2.95016,-10.86442c0.12958,-0.72231 0.27537,-1.44188 0.39353,-2.1661c-2.30831,1.44188 -4.49449,2.65772 -7.59665,2.65772c0,0 -2.5,0 -2.5,-2.5c0,-2.5 2.5,-2.5 2.5,-2.5c0.96609,0 1.97628,0.28852 2.89829,0c0.5259,-0.16456 0.63899,-0.93062 1.0975,-1.23629c0.88194,-0.58796 1.75555,-1.16292 2.64774,-1.71675l-0.01709,-0.0299l2.86017,-1.63438c0.37408,-0.22304 0.8113,-0.35117 1.27846,-0.35117c1.38071,0 2.5,1.11929 2.5,2.5c0,0.12614 -0.00933,0.25008 -0.02737,0.3712l-0.32497,2.43727c0.10378,0.25311 -0.75808,4.88251 -0.78774,5.04881c-0.72126,4.04345 -1.8329,7.67799 -3.12862,11.56516l-0.07707,-0.12668c0,0 0.1247,0.2884 0.18346,0.70491c3.65127,0.89305 7.30707,1.60545 10.97825,1.51374h1.44914c0,0 2.8821,0.4522 2.46495,2.91715z"/><path d="M184.76002,181.38936c-0.22929,2.48946 -2.71876,2.26017 -2.71876,2.26017l-2.98861,-0.53729c-0.34503,-0.27603 -0.99754,-0.38782 -1.0351,-0.82808c-0.02802,-0.32844 1.24854,-0.20476 0.93763,-0.31427c-0.92608,-0.32619 -2.10899,0.42851 -2.75062,0.85627c-2.88165,1.8583 -2.86095,2.89598 -7.47934,2.79394c-0.34663,-0.00766 -1.81109,-2.11816 -2.46508,-3.33908c-0.91195,0.59661 -1.78038,1.26233 -2.62576,1.94945c-2.76271,2.24553 -4.81711,4.19982 -8.56648,4.96225c-0.45363,0.09225 -0.84722,-0.37953 -1.24212,-0.62106c-3.7743,-2.30849 -4.42619,-5.61734 -5.44774,-9.70354c0,0 -0.60634,-2.42536 1.81902,-3.0317c2.42536,-0.60634 3.0317,1.81902 3.0317,1.81902c0.20211,0.80845 0.40423,1.6169 0.60634,2.42536c0.38049,1.52196 0.91073,3.69911 2.22675,4.01873c0.44984,0.10925 0.94546,0.97642 1.24212,0.62106c0.31025,-0.37163 -0.89552,-0.83284 -0.69679,-1.27428c0.58938,-1.30919 4.60811,-3.81043 5.81317,-4.67258c1.16064,-0.83037 2.27426,-2.61448 3.65048,-2.23682c1.96813,0.54011 3.66342,2.07992 4.83779,3.79443c0.51731,-0.54682 1.63311,-1.05945 2.52245,-1.66543c3.19101,-2.12734 5.72791,-1.87173 8.74507,0.542l0.32372,-0.53729c0,0 2.48946,0.22929 2.26017,2.71876z"/><path d="M228.81469,198.1854c-1.25885,1.34876 -2.58405,0.77316 -3.19208,0.37892c-5.60735,-0.00887 -11.20719,0.05401 -14.37906,-5.54168c-0.53456,-0.94305 1.16547,-1.83063 1.81574,-2.69796c1.84476,-2.46054 3.59422,-4.86421 5.27793,-7.45772c1.13213,-1.73309 2.69283,-3.73994 3.43339,-5.67793c0.52809,-1.38198 0.84095,-2.84672 1.06028,-4.30981c0.07161,-0.47771 -0.31765,-1.08523 0,-1.44915c0.21519,-0.24653 1.06534,0.71376 0.87302,0.449c-0.37391,-0.51474 -1.3012,-0.62335 -1.44915,-1.24212c-0.09583,-0.40081 1.22026,-0.44237 0.9684,-0.76856c-0.26672,-0.34545 -0.82658,0.28063 -1.24212,0.41404c-1.035,0.33229 -2.00296,0.84715 -2.98487,1.31351c-3.84534,1.82632 -6.40189,5.1144 -8.47038,8.73426c0,0 -1.24035,2.17061 -3.41096,0.93026c-2.17061,-1.24035 -0.93026,-3.41096 -0.93026,-3.41096c2.60208,-4.55364 5.866,-8.27963 10.57553,-10.7257c0.73509,-0.38179 3.84789,-2.26228 4.88192,-1.99883c6.76639,1.72397 7.18792,7.46415 5.00054,13.18835c-0.96917,2.53625 -2.64554,5.00577 -4.1116,7.27621c-1.4781,2.27681 -2.86685,4.59837 -4.59547,6.69393c-0.08703,0.1055 -0.17361,0.21144 -0.25964,0.31786c0.3574,0.16577 0.72264,0.35472 1.06065,0.41119c2.47424,0.41335 4.93285,0.54457 7.43094,0.55304l2.5254,1.08639c0,0 1.82764,1.7058 0.12184,3.53343z"/></g></g></svg>